<svg xmlns="http://www.w3.org/2000/svg" viewBox="0 0 512 512">
  <defs>
    <linearGradient id="cover" x1="0" y1="0" x2="1" y2="1">
      <stop offset="0%" stop-color="#f5efe7"/>
      <stop offset="100%" stop-color="#e8ddd2"/>
    </linearGradient>
    <linearGradient id="heart" x1="0" y1="0" x2="0" y2="1">
      <stop offset="0%" stop-color="#e8967c"/>
      <stop offset="100%" stop-color="#e07a5c"/>
    </linearGradient>
  </defs>
  <!-- Book body -->
  <rect x="80" y="56" width="352" height="400" rx="24" fill="url(#cover)" stroke="#f0b8a4" stroke-width="8"/>
  <!-- Spine -->
  <rect x="80" y="56" width="48" height="400" rx="24" fill="#f0b8a4"/>
  <rect x="104" y="56" width="24" height="400" fill="#f0b8a4"/>
  <!-- Spine detail lines -->
  <line x1="96" y1="88" x2="96" y2="424" stroke="#e8967c" stroke-width="2" opacity="0.5"/>
  <line x1="112" y1="56" x2="112" y2="456" stroke="#e8ddd2" stroke-width="1.5" opacity="0.6"/>
  <!-- Page edges -->
  <rect x="136" y="72" width="280" height="368" rx="8" fill="#faf6f1" stroke="#e8ddd2" stroke-width="2"/>
  <!-- Dotted pattern on page -->
  <g opacity="0.25" fill="#b4a596">
    <circle cx="168" cy="104" r="2"/><circle cx="200" cy="104" r="2"/><circle cx="232" cy="104" r="2"/><circle cx="264" cy="104" r="2"/><circle cx="296" cy="104" r="2"/><circle cx="328" cy="104" r="2"/><circle cx="360" cy="104" r="2"/><circle cx="392" cy="104" r="2"/>
    <circle cx="168" cy="136" r="2"/><circle cx="200" cy="136" r="2"/><circle cx="232" cy="136" r="2"/><circle cx="264" cy="136" r="2"/><circle cx="296" cy="136" r="2"/><circle cx="328" cy="136" r="2"/><circle cx="360" cy="136" r="2"/><circle cx="392" cy="136" r="2"/>
    <circle cx="168" cy="168" r="2"/><circle cx="200" cy="168" r="2"/><circle cx="232" cy="168" r="2"/><circle cx="264" cy="168" r="2"/><circle cx="296" cy="168" r="2"/><circle cx="328" cy="168" r="2"/><circle cx="360" cy="168" r="2"/><circle cx="392" cy="168" r="2"/>
    <circle cx="168" cy="200" r="2"/><circle cx="200" cy="200" r="2"/><circle cx="232" cy="200" r="2"/><circle cx="264" cy="200" r="2"/><circle cx="296" cy="200" r="2"/><circle cx="328" cy="200" r="2"/><circle cx="360" cy="200" r="2"/><circle cx="392" cy="200" r="2"/>
    <circle cx="168" cy="328" r="2"/><circle cx="200" cy="328" r="2"/><circle cx="232" cy="328" r="2"/><circle cx="264" cy="328" r="2"/><circle cx="296" cy="328" r="2"/><circle cx="328" cy="328" r="2"/><circle cx="360" cy="328" r="2"/><circle cx="392" cy="328" r="2"/>
    <circle cx="168" cy="360" r="2"/><circle cx="200" cy="360" r="2"/><circle cx="232" cy="360" r="2"/><circle cx="264" cy="360" r="2"/><circle cx="296" cy="360" r="2"/><circle cx="328" cy="360" r="2"/><circle cx="360" cy="360" r="2"/><circle cx="392" cy="360" r="2"/>
    <circle cx="168" cy="392" r="2"/><circle cx="200" cy="392" r="2"/><circle cx="232" cy="392" r="2"/><circle cx="264" cy="392" r="2"/><circle cx="296" cy="392" r="2"/><circle cx="328" cy="392" r="2"/><circle cx="360" cy="392" r="2"/><circle cx="392" cy="392" r="2"/>
    <circle cx="168" cy="424" r="2"/><circle cx="200" cy="424" r="2"/><circle cx="232" cy="424" r="2"/><circle cx="264" cy="424" r="2"/><circle cx="296" cy="424" r="2"/><circle cx="328" cy="424" r="2"/><circle cx="360" cy="424" r="2"/><circle cx="392" cy="424" r="2"/>
  </g>
  <!-- Margin line -->
  <line x1="160" y1="72" x2="160" y2="440" stroke="#f0b8a4" stroke-width="1.5" opacity="0.35"/>
  <!-- Heart -->
  <path d="M276 210 c-4-36-48-52-68-24 -20-28-64-12-68 24 0 40 68 80 68 80s68-40 68-80z" fill="url(#heart)" opacity="0.9"/>
  <!-- Dashed line under heart -->
  <line x1="180" y1="310" x2="380" y2="310" stroke="#f0b8a4" stroke-width="3" stroke-dasharray="10 8" opacity="0.5"/>
  <line x1="180" y1="340" x2="340" y2="340" stroke="#f0b8a4" stroke-width="3" stroke-dasharray="10 8" opacity="0.35"/>
</svg>
